<svg xmlns="http://www.w3.org/2000/svg" width="32" height="32" viewBox="0 0 24 24"><path fill="currentColor" d="M7.5 11A3.5 3.5 0 1 1 7.5 4a3.5 3.5 0 0 1 0 7Zm0-2A1.5 1.5 0 1 0 7.5 6a1.5 1.5 0 0 0 0 3Zm9 2a3.5 3.5 0 1 1 0-7 3.5 3.5 0 0 1 0 7Zm0-2a1.5 1.5 0 1 0 0-3 1.5 1.5 0 0 0 0 3ZM2 20v-2c0-2.21 2.239-4 5-4s5 1.79 5 4v2H2Zm2-2h8c0-.804-1.12-2-4-2s-4 1.196-4 2Zm10.1 0H22v2h-8v-2c0-.745-.173-1.44-.478-2.055A5.977 5.977 0 0 1 17 14c2.761 0 5 1.79 5 4h-2c0-.804-1.12-2-4-2-1.332 0-2.254.256-2.9.604.066.32.1.655.1 1.396Z"/></svg>
